<svg xmlns="http://www.w3.org/2000/svg" aria-hidden="true" style="width:0;height:0;position:absolute;overflow:hidden"><defs><symbol id="icon-map-point" viewBox="0 0 19 32"><path d="M9.6.66C4.3.66 0 4.94 0 10.24c0 9.16 9.6 21.12 9.6 21.12s9.6-11.96 9.6-21.12c0-5.3-4.3-9.58-9.6-9.58zm0 14.88a5.19 5.19 0 1 1 0-10.37 5.19 5.19 0 0 1 0 10.37z"/></symbol><symbol id="icon-facebook" viewBox="0 0 32 32"><path d="M13.91 11.1v2.2H12.3V16h1.61v8h3.32v-8h2.22s.21-1.3.31-2.7h-2.52v-1.85c0-.28.36-.65.72-.65h1.8V8h-2.45c-3.48 0-3.4 2.7-3.4 3.1z"/><path d="M6.4 3.2a3.2 3.2 0 0 0-3.2 3.2v19.2a3.2 3.2 0 0 0 3.2 3.2h19.2a3.2 3.2 0 0 0 3.2-3.2V6.4a3.2 3.2 0 0 0-3.2-3.2H6.4zm0-3.2h19.2A6.4 6.4 0 0 1 32 6.4v19.2a6.4 6.4 0 0 1-6.4 6.4H6.4A6.4 6.4 0 0 1 0 25.6V6.4A6.4 6.4 0 0 1 6.4 0z"/></symbol><symbol id="icon-telephone" viewBox="0 0 19 32"><path d="M15.6 0a3.6 3.6 0 0 1 3.6 3.6v24.8a3.6 3.6 0 0 1-3.6 3.6h-12A3.6 3.6 0 0 1 0 28.4V3.6A3.6 3.6 0 0 1 3.6 0h12zm0 2.4h-12a1.2 1.2 0 0 0-1.2 1.2v24.8c0 .66.54 1.2 1.2 1.2h12a1.2 1.2 0 0 0 1.2-1.2V3.6a1.2 1.2 0 0 0-1.2-1.2zm-4 22.4a1.2 1.2 0 0 1 1.2 1.2 1.2 1.2 0 0 1-1.2 1.2h-4A1.2 1.2 0 0 1 6.4 26a1.2 1.2 0 0 1 1.2-1.2h4z"/></symbol><symbol id="icon-instagram" viewBox="0 0 32 32"><path d="M9.4.1C11.11.02 11.65 0 16 0s4.89.02 6.6.1c1.7.07 2.86.34 3.88.74a7.88 7.88 0 0 1 2.83 1.85 7.8 7.8 0 0 1 1.85 2.83c.4 1.02.66 2.18.74 3.88.08 1.71.1 2.25.1 6.6s-.02 4.89-.1 6.6c-.07 1.7-.34 2.86-.74 3.88a7.85 7.85 0 0 1-1.85 2.83 7.83 7.83 0 0 1-2.83 1.85c-1.02.4-2.18.67-3.88.74-1.71.08-2.25.1-6.6.1s-4.89-.02-6.6-.1c-1.7-.07-2.86-.34-3.88-.74a7.85 7.85 0 0 1-2.83-1.85 7.85 7.85 0 0 1-1.85-2.83A11.8 11.8 0 0 1 .1 22.6C.02 20.89 0 20.34 0 16c0-4.35.02-4.89.1-6.6s.34-2.86.74-3.88a7.85 7.85 0 0 1 1.85-2.83A7.84 7.84 0 0 1 5.52.84 11.8 11.8 0 0 1 9.4.1zm13.06 2.88c-1.68-.08-2.19-.1-6.46-.1s-4.78.02-6.46.1c-1.57.07-2.41.33-2.98.55-.74.29-1.28.63-1.84 1.2a4.97 4.97 0 0 0-1.2 1.83 8.83 8.83 0 0 0-.54 2.98c-.08 1.68-.1 2.19-.1 6.46s.02 4.78.1 6.46c.07 1.57.33 2.41.55 2.98.25.7.66 1.32 1.2 1.84.5.53 1.14.94 1.83 1.2.57.21 1.41.47 2.98.54 1.68.08 2.19.1 6.46.1s4.78-.02 6.46-.1a8.86 8.86 0 0 0 2.98-.55c.74-.29 1.28-.63 1.84-1.2a4.9 4.9 0 0 0 1.2-1.83c.21-.57.47-1.41.54-2.98.08-1.68.1-2.19.1-6.46s-.02-4.78-.1-6.46a8.86 8.86 0 0 0-.55-2.98 4.97 4.97 0 0 0-1.2-1.84 4.97 4.97 0 0 0-1.83-1.2 8.83 8.83 0 0 0-2.98-.54zm-8.5 17.95a5.33 5.33 0 1 0 4.1-9.85 5.33 5.33 0 0 0-4.1 9.85zM10.18 10.2a8.23 8.23 0 1 1 11.65 11.64 8.23 8.23 0 0 1-11.65-11.65zM26.05 9a1.96 1.96 0 0 0 .47-2.14 1.93 1.93 0 0 0-2.59-1.05 1.93 1.93 0 0 0-1.16 1.8 1.95 1.95 0 0 0 3.28 1.4z"/></symbol><symbol id="icon-telegram" viewBox="0 0 34 32"><path d="M31.25 1.68c-.41.03-.8.12-1.18.28-.37.14-2.08.86-4.68 1.96l-9.33 3.92-13.26 5.6.07-.04s-.45.15-.92.48c-.3.18-.55.43-.74.71A2.1 2.1 0 0 0 .86 16c.11.92.7 1.46 1.13 1.77.42.3.83.44.83.44h.01L9 20.28c.28.89 1.88 6.16 2.27 7.37.22.73.45 1.18.72 1.53.14.18.3.32.48.44.1.06.2.1.31.14l-.06-.02c.02 0 .03.02.05.03l.15.02c.97.3 1.76-.3 1.76-.3l.04-.04 3.64-3.32 6.1 4.69.15.05c1.27.56 2.56.25 3.24-.3.68-.55.95-1.25.95-1.25l.04-.12 4.72-24.16c.13-.6.17-1.16.02-1.7a2.28 2.28 0 0 0-2.33-1.66zm-.13 2.59c0 .08 0 .07-.03.22v.02l-4.67 23.9c-.02.04-.05.12-.15.2-.1.07-.17.12-.58-.04l-7.47-5.73-4.5 4.11.94-6.05 12.2-11.37c.5-.46.33-.56.33-.56.04-.58-.76-.17-.76-.17l-15.38 9.53v-.03l-7.4-2.49.04-.01.04-.02.04-.02 13.28-5.59c3.35-1.4 6.72-2.83 9.32-3.93l4.62-1.93c.1-.04.05-.04.13-.04z"/></symbol><symbol id="icon-arrow-right" viewBox="0 0 53 32"><path d="m38.2 1.04-2.5 2.52 10.66 10.66H0v3.56h46.36L35.69 28.44l2.52 2.52L53.17 16 38.2 1.04z"/></symbol><symbol id="icon-arrow-left" viewBox="0 0 55 32"><path d="M53.48 14.22H7.12L17.8 3.56l-2.52-2.52L.32 16l14.95 14.96 2.52-2.52L7.12 17.78h46.36v-3.56z"/></symbol><symbol id="icon-close-btn" viewBox="0 0 32 32"><path stroke-linecap="round" stroke-linejoin="round" stroke-width="2" d="m27.43 3.43-24 24m0-24 24 24"/></symbol><symbol id="icon-form-btn" viewBox="0 0 53 32"><path d="M1.21 2.5a4 4 0 0 1 5.66 0l19.8 19.8 19.8-19.8a4 4 0 0 1 5.65 5.66L29.5 30.8a4 4 0 0 1-5.65 0L1.2 8.16a4 4 0 0 1 0-5.65z"/></symbol></defs></svg>